<svg width="641" height="641" viewBox="0 0 641 641" fill="none" xmlns="http://www.w3.org/2000/svg">
<path d="M205.465 332.085C214.438 331 231.839 332.236 249.844 334.216C267.895 336.202 286.622 338.944 298.232 340.887L298.604 340.95L298.646 341.325C299.948 352.928 301.701 371.427 302.723 389.214C303.742 406.953 304.04 424.057 302.419 432.887C301.875 452.747 297.371 503.118 283.677 546.135L283.676 546.139C280.905 554.605 276.129 567.819 270.805 579.954C268.143 586.021 265.341 591.827 262.58 596.638C259.842 601.41 257.116 605.252 254.579 607.384C250.022 613.022 235.462 625.374 213.13 630.409L213.12 630.412V630.411C200.662 632.95 169.161 632.328 142.408 609.647C138.175 606.265 131.495 600.277 125.189 593.29C118.897 586.317 112.938 578.305 110.183 570.865C108.18 566.875 105.204 559.701 102.691 551.645C100.222 543.734 98.1864 534.934 97.9652 527.445C90.4495 526.799 81.9895 524.284 74.4476 521.395C66.7632 518.451 59.997 515.107 56.1 512.917C48.7652 509.785 41.0289 503.48 34.3558 496.906C27.6722 490.321 22.0141 483.427 18.8392 479.077L17.8529 477.782C-2.50654 450.546 -1.40028 420.348 1.78648 408.445L1.78843 408.434C8.07528 386.797 21.3021 373.208 27.2259 369.056C29.5112 366.688 33.5279 364.233 38.4798 361.818C43.4727 359.383 49.4694 356.964 55.721 354.699C68.2252 350.168 81.7856 346.236 90.4574 344L90.4613 344C134.504 333.02 185.446 331.483 205.465 332.085Z" fill="#DD5613"/>
<path d="M306.522 205.819C307.605 214.807 306.372 232.238 304.395 250.273C302.413 268.355 299.675 287.114 297.735 298.744L297.672 299.116L297.297 299.159C285.713 300.464 267.247 302.218 249.49 303.242C231.781 304.263 214.707 304.561 205.892 302.938C186.066 302.393 135.781 297.881 92.8372 284.164L92.8333 284.163C84.382 281.387 71.1915 276.602 59.0774 271.269C53.0207 268.603 47.2242 265.796 42.4212 263.031C37.657 260.288 33.8216 257.556 31.6927 255.015C26.0638 250.449 13.7343 235.864 8.70828 213.496L8.70633 213.486C6.17151 201.007 6.79333 169.452 29.4348 142.653C32.811 138.413 38.7879 131.72 45.7639 125.404C52.7226 119.103 60.7193 113.136 68.1458 110.375C72.1276 108.368 79.2921 105.387 87.3372 102.868C95.2346 100.395 104.02 98.356 111.496 98.1343C112.141 90.6058 114.651 82.131 117.535 74.5757C120.474 66.8786 123.812 60.1017 125.999 56.1978C129.125 48.8504 135.42 41.1005 141.983 34.4156C148.556 27.7204 155.438 22.0521 159.781 18.8716L161.074 17.8843C188.263 -2.5107 218.41 -1.40285 230.293 1.78961L230.304 1.79254C251.906 8.09069 265.472 21.3406 269.615 27.274C271.979 29.5633 274.431 33.5864 276.841 38.5464C279.271 43.5477 281.685 49.5547 283.947 55.817C288.47 68.3425 292.395 81.9262 294.627 90.6129L294.628 90.6168C305.589 134.736 307.124 185.766 306.522 205.819Z" fill="#E40B0B"/>
<path d="M434.7 308.697C425.727 309.783 408.326 308.546 390.321 306.566C372.27 304.58 353.543 301.838 341.933 299.895L341.561 299.833L341.519 299.458C340.217 287.854 338.464 269.355 337.442 251.568C336.423 233.829 336.125 216.725 337.746 207.895C338.29 188.035 342.794 137.664 356.488 94.647L356.489 94.6431C359.26 86.1773 364.036 72.9634 369.36 60.8286C372.022 54.7617 374.824 48.9551 377.585 44.144C380.323 39.3722 383.049 35.5305 385.586 33.3979C390.143 27.7596 404.703 15.4084 427.035 10.3735L427.045 10.3706V10.3716C439.503 7.83234 471.004 8.45496 497.758 31.1353C501.99 34.5171 508.67 40.5047 514.976 47.4927C521.268 54.4648 527.227 62.4773 529.982 69.9175C531.985 73.9069 534.961 81.0814 537.474 89.1372C539.943 97.048 541.979 105.849 542.2 113.337C549.715 113.984 558.176 116.498 565.717 119.387C573.402 122.331 580.168 125.675 584.065 127.866C591.4 130.997 599.136 137.302 605.809 143.876C612.493 150.461 618.151 157.356 621.326 161.706L622.312 163C642.672 190.236 641.565 220.434 638.379 232.337L638.377 232.348C632.09 253.986 618.863 267.574 612.939 271.726C610.654 274.094 606.637 276.55 601.685 278.964C596.692 281.399 590.696 283.818 584.444 286.083C571.94 290.615 558.38 294.546 549.708 296.782L549.704 296.783C505.661 307.762 454.719 309.3 434.7 308.697Z" fill="#D25F26"/>
<path d="M333.164 434.347C332.08 425.359 333.314 407.928 335.291 389.893C337.273 371.811 340.011 353.052 341.951 341.422L342.013 341.05L342.388 341.007C353.972 339.702 372.439 337.948 390.196 336.924C407.904 335.903 424.978 335.605 433.794 337.228C453.62 337.773 503.904 342.285 546.848 356.002L546.852 356.003C555.304 358.78 568.494 363.564 580.608 368.897C586.665 371.563 592.461 374.37 597.264 377.135C602.029 379.879 605.864 382.61 607.993 385.151C613.622 389.717 625.951 404.302 630.977 426.67L630.979 426.68C633.514 439.16 632.892 470.714 610.251 497.513C606.874 501.753 600.898 508.446 593.922 514.762C586.963 521.063 578.967 527.03 571.541 529.792C567.567 531.795 560.694 534.805 552.935 537.354C545.321 539.856 536.817 541.926 529.349 542.149C528.692 549.686 525.893 558.14 522.724 565.665C519.495 573.334 515.867 580.079 513.686 583.969C510.561 591.316 504.266 599.066 497.703 605.75C491.13 612.446 484.247 618.114 479.905 621.294L478.612 622.282C451.422 642.677 421.276 641.569 409.392 638.376L409.382 638.374C387.78 632.076 374.214 618.826 370.07 612.892C367.706 610.603 365.255 606.58 362.844 601.62C360.414 596.618 358.001 590.611 355.739 584.349C351.216 571.824 347.29 558.24 345.058 549.553L345.057 549.549C334.097 505.431 332.562 454.4 333.164 434.347Z" fill="#B50A0A"/>
</svg>
